<svg xmlns="http://www.w3.org/2000/svg" width="352.179" height="190" viewBox="0 0 352.179 190">
  <g id="Group_1973" data-name="Group 1973" transform="translate(-11 -140)">
    <g id="Group_1968" data-name="Group 1968" transform="translate(12.5 141.5)">
      <path id="Subtraction_1" data-name="Subtraction 1" d="M152.5,82h-3.4a1.374,1.374,0,0,1,.275-.028h3.9C153,81.991,152.745,82,152.5,82Zm-13.638,0h-5.439a1.374,1.374,0,0,1,.275-.028h4.9a1.368,1.368,0,0,1,.265.026Zm-14.471,0H10.5A10.5,10.5,0,0,1,0,71.5v-61A10.5,10.5,0,0,1,10.5,0h142A10.5,10.5,0,0,1,163,10.5V31.484h-1.38a2.038,2.038,0,0,0-1.96,2.1V39.9H143.985V33.587a2.037,2.037,0,0,0-1.959-2.1h-3.919a2.037,2.037,0,0,0-1.959,2.1V39.9h-5.879a6.113,6.113,0,0,0-5.878,6.311V52.52H163v4.208H124.391V82Zm29.881-8.442h-4.9a1.528,1.528,0,0,1-1.469-1.579V66.721a1.528,1.528,0,0,1,1.469-1.578h4.9a1.528,1.528,0,0,1,1.47,1.578v5.259A1.529,1.529,0,0,1,154.272,73.558Zm-15.675,0h-4.9a1.529,1.529,0,0,1-1.47-1.579V66.721a1.528,1.528,0,0,1,1.47-1.578h4.9a1.528,1.528,0,0,1,1.47,1.578v5.259A1.529,1.529,0,0,1,138.6,73.558Z" fill="#0d2944" stroke="#fff" stroke-width="3"/>
      <g id="Group_1972" data-name="Group 1972" transform="translate(13.5 16.857)">
        <path id="Icon_awesome-calendar-alt" data-name="Icon awesome-calendar-alt" d="M0,18.643a1.929,1.929,0,0,0,1.929,1.929H16.071A1.929,1.929,0,0,0,18,18.643V7.714H0Zm12.857-7.875a.484.484,0,0,1,.482-.482h1.607a.484.484,0,0,1,.482.482v1.607a.484.484,0,0,1-.482.482H13.339a.484.484,0,0,1-.482-.482Zm0,5.143a.484.484,0,0,1,.482-.482h1.607a.484.484,0,0,1,.482.482v1.607a.484.484,0,0,1-.482.482H13.339a.484.484,0,0,1-.482-.482ZM7.714,10.768a.484.484,0,0,1,.482-.482H9.8a.484.484,0,0,1,.482.482v1.607a.484.484,0,0,1-.482.482H8.2a.484.484,0,0,1-.482-.482Zm0,5.143a.484.484,0,0,1,.482-.482H9.8a.484.484,0,0,1,.482.482v1.607A.484.484,0,0,1,9.8,18H8.2a.484.484,0,0,1-.482-.482ZM2.571,10.768a.484.484,0,0,1,.482-.482H4.661a.484.484,0,0,1,.482.482v1.607a.484.484,0,0,1-.482.482H3.054a.484.484,0,0,1-.482-.482Zm0,5.143a.484.484,0,0,1,.482-.482H4.661a.484.484,0,0,1,.482.482v1.607A.484.484,0,0,1,4.661,18H3.054a.484.484,0,0,1-.482-.482Zm13.5-13.339H14.143V.643A.645.645,0,0,0,13.5,0H12.214a.645.645,0,0,0-.643.643V2.571H6.429V.643A.645.645,0,0,0,5.786,0H4.5a.645.645,0,0,0-.643.643V2.571H1.929A1.929,1.929,0,0,0,0,4.5V6.429H18V4.5A1.929,1.929,0,0,0,16.071,2.571Z" fill="#fff"/>
        <text id="My_Bookings" data-name="My Bookings" transform="translate(0 45.286)" fill="#fff" font-size="14" font-family="Lato-BoldItalic, Lato" font-weight="700" font-style="italic"><tspan x="0" y="0">My Bookings</tspan></text>
      </g>
    </g>
    <g id="Group_1968-2" data-name="Group 1968" transform="translate(198.5 141.5)">
      <path id="Subtraction_4" data-name="Subtraction 4" d="M-1165-1148.5h-1c.508-.566.952-1.057,1.234-1.351.032.184.126.716.237,1.34C-1164.694-1148.5-1164.854-1148.5-1165-1148.5Zm-9.726,0H-1307a10.512,10.512,0,0,1-10.5-10.5v-61a10.43,10.43,0,0,1,3.075-7.424A10.432,10.432,0,0,1-1307-1230.5h142a10.432,10.432,0,0,1,7.425,3.075A10.43,10.43,0,0,1-1154.5-1220v55.571l-.728-1.385a2.794,2.794,0,0,0-.385-.5,5.716,5.716,0,0,0-.961-.67l-8.106-4.6a5.029,5.029,0,0,0-2.284-.559,4.846,4.846,0,0,0-1.019.109,4.781,4.781,0,0,0-1.4.546,6.048,6.048,0,0,0-2.891,3.238l-4.163,8.357-6.563,1.27-.15.054-5.925-4.179c-1.119-.782-1.423-2.9-1.5-3.768,0-.031,0-.049-.005-.056a6.9,6.9,0,0,0-3.012-4.958,7.466,7.466,0,0,0-4.249-1.393,6.337,6.337,0,0,0-1.012.08,4.984,4.984,0,0,0-3.273,1.983,4.774,4.774,0,0,0-.876,2.813l.083.9a7.187,7.187,0,0,0,2.973,4.532,7.406,7.406,0,0,0,4.217,1.4,6.189,6.189,0,0,0,1.042-.088l.412-.083a8.165,8.165,0,0,1,2.282-.365,2.966,2.966,0,0,1,1.676.407c.011.015,1.34.951,3.366,2.378.933.657,1.809,1.274,2.244,1.582a2.036,2.036,0,0,0-.328,1.051,2.271,2.271,0,0,0,.837,1.743,2.28,2.28,0,0,0,1.439.512,2.286,2.286,0,0,0,.437-.042l7.861-1.531a4.517,4.517,0,0,0,.96-.41,2.526,2.526,0,0,0,.643-.8l2.068-4.153c.007.03.279,1.308.593,2.788.4,1.862.844,3.972.857,4.04-.14.14-4.85,5.124-5.386,5.691Zm-22.863-7.741a2.08,2.08,0,0,0-2.068,2.065,2.06,2.06,0,0,0,2.068,2.047h.007a2.06,2.06,0,0,0,1.444-.6,2.035,2.035,0,0,0,.6-1.45A2.065,2.065,0,0,0-1197.589-1156.241Zm28.667-26.116a4.49,4.49,0,0,0-4.485,4.485,4.484,4.484,0,0,0,4.492,4.465,4.476,4.476,0,0,0,4.478-4.465A4.49,4.49,0,0,0-1168.923-1182.357Zm10.5,31.538v0c-.507-2.955-.787-4.589-.787-4.6l-.341-1.5c0-.016-.239-1.113-.631-2.9l-.065-.3c-.281-1.28-.63-2.874-.931-4.256,1.106.637,2.16,1.241,2.217,1.27.055.121,3.823,7.275,3.861,7.347q.027.049.055.1a10.492,10.492,0,0,1-3.376,4.846Zm-37.308-12.147a5.5,5.5,0,0,1-3.19-1.086,5.353,5.353,0,0,1-2.261-3.372l-.056-.643a3.021,3.021,0,0,1,.549-1.789,3.427,3.427,0,0,1,2.859-1.324,5.662,5.662,0,0,1,3.22,1.079,5.36,5.36,0,0,1,2.256,3.382,3.17,3.17,0,0,1-.5,2.422,3.245,3.245,0,0,1-2.137,1.27A4.473,4.473,0,0,1-1195.727-1162.966Z" transform="translate(1317.5 1230.5)" fill="#0d2944" stroke="#fff" stroke-width="3"/>
      <g id="Group_1972-2" data-name="Group 1972" transform="translate(13.5 16.857)">
        <text id="Trainings" transform="translate(0 45.286)" fill="#fff" font-size="14" font-family="Lato-BoldItalic, Lato" font-weight="700" font-style="italic"><tspan x="0" y="0">Trainings</tspan></text>
        <path id="Icon_map-tennis" data-name="Icon map-tennis" d="M2.724,10.39a.761.761,0,1,0,0,1.523.761.761,0,0,0,0-1.523Zm10.62-6.358A1.657,1.657,0,1,0,11.68,2.378,1.656,1.656,0,0,0,13.344,4.032Zm7.138,14.755-2.7-3.178s-.843-4.906-.843-4.916l-.126-.556c.005.005-.339-1.548-.6-2.761.421.243.8.46.821.47.02.045,1.43,2.721,1.43,2.721a.851.851,0,0,0,.5.41.838.838,0,0,0,.645-.061.813.813,0,0,0,.41-.5.792.792,0,0,0-.056-.637L18.413,6.844a1.038,1.038,0,0,0-.143-.187,2.123,2.123,0,0,0-.356-.248l-3-1.705a1.831,1.831,0,0,0-1.223-.167,1.774,1.774,0,0,0-.517.2,2.253,2.253,0,0,0-1.071,1.2l-1.542,3.1-2.43.47-.056.02L5.879,7.977c-.492-.344-.553-1.376-.558-1.416A2.552,2.552,0,0,0,4.2,4.725a2.683,2.683,0,0,0-1.948-.486,1.849,1.849,0,0,0-1.213.734A1.779,1.779,0,0,0,.72,6.015l.03.335a2.653,2.653,0,0,0,1.1,1.679A2.639,2.639,0,0,0,3.8,8.514l.153-.03c.015-.01.989-.309,1.466.015,0,0,1.641,1.158,2.078,1.467a.738.738,0,0,0-.122.39.843.843,0,0,0,1,.82l2.911-.567a1.667,1.667,0,0,0,.356-.152.93.93,0,0,0,.238-.3L12.65,8.62s.528,2.483.537,2.529c-.06.061-2.388,2.524-2.388,2.524l-.09.051a1.087,1.087,0,0,0-.405.769v5.219a1.042,1.042,0,0,0,2.083,0v-4.36a29.28,29.28,0,0,0,2.5-2.6c.051.293.522,2.94.522,2.94a1.176,1.176,0,0,0,.325.616c0,.006,3.208,3.78,3.208,3.78a1.052,1.052,0,0,0,.69.353,1.029,1.029,0,0,0,.737-.237,1.015,1.015,0,0,0,.355-.77,1,1,0,0,0-.238-.652Zm-16-11.381a1.2,1.2,0,0,1-.791.47A1.964,1.964,0,0,1,2.232,7.5a1.981,1.981,0,0,1-.837-1.249L1.374,6.01a1.114,1.114,0,0,1,.2-.663,1.628,1.628,0,0,1,2.252-.091A1.615,1.615,0,0,1,4.479,7.406Z" transform="translate(-2.72 -0.148)" fill="#fff"/>
      </g>
    </g>
    <g id="Group_1968-3" data-name="Group 1968" transform="translate(12.5 246.5)">
      <path id="Subtraction_3" data-name="Subtraction 3" d="M-979-1253.5h-.643v-8.934h11.027a10.5,10.5,0,0,1-3.5,6.364A10.5,10.5,0,0,1-979-1253.5Zm-8.357,0h-15.429v-8.934h15.429v8.933Zm-19.285,0H-1121a10.43,10.43,0,0,1-7.424-3.075A10.432,10.432,0,0,1-1131.5-1264v-61a10.432,10.432,0,0,1,3.075-7.425A10.43,10.43,0,0,1-1121-1335.5h142a10.512,10.512,0,0,1,10.5,10.5v30.507a12.763,12.763,0,0,0-8.285,3.932c-4.006,4.006-6.343,9.544-7.6,13.484-.914-3.895-2.762-9.3-6.389-12.925a9.682,9.682,0,0,0-6.741-2.928,7.1,7.1,0,0,0-5.078,2.019,7.155,7.155,0,0,0-1.993,5.721,9.747,9.747,0,0,0,2.9,6.1,19.407,19.407,0,0,0,4.262,3.158h-13.08v15.429h3.857v7Zm38.143-10.863h-11.143v-7.714H-968.5v7.713Zm-18.858,0h-19.285v-7.714h19.285v7.713Zm10.222-11.571h-3.054c1.106-3.427,3.127-8.213,6.472-11.558a8.558,8.558,0,0,1,5.217-2.656v9.183a27.867,27.867,0,0,1-8.635,5.031Zm-11.754-1.274h0l-.231-.063-.021-.006-.077-.021c-4.1-1.14-7.353-2.821-9.394-4.862a5.49,5.49,0,0,1-1.644-3.361,2.959,2.959,0,0,1,.735-2.32,2.8,2.8,0,0,1,2.01-.747,5.324,5.324,0,0,1,3.672,1.656c2.042,2.041,3.723,5.289,4.862,9.394.028.1.054.194.08.291l.011.039Z" transform="translate(1131.5 1335.5)" fill="#0d2944" stroke="#fff" stroke-width="3"/>
      <g id="Group_1972-3" data-name="Group 1972" transform="translate(13.5 16.857)">
        <text id="Tournaments" transform="translate(0 45.286)" fill="#fff" font-size="14" font-family="Lato-BoldItalic, Lato" font-weight="700" font-style="italic"><tspan x="0" y="0">Tournaments</tspan></text>
        <path id="Icon_metro-gift" data-name="Icon metro-gift" d="M18.712,8.476a8.069,8.069,0,0,0,1.033-.867A4.434,4.434,0,0,0,21.01,5.285a2.583,2.583,0,0,0-.635-2.312,2.418,2.418,0,0,0-1.755-.685A4.191,4.191,0,0,0,15.737,3.6,11.345,11.345,0,0,0,13.2,8.1a9.175,9.175,0,0,0-2.13-4.308,3.22,3.22,0,0,0-2.247-.976,2.359,2.359,0,0,0-1.693.673,2.811,2.811,0,0,0,.3,3.94A6.475,6.475,0,0,0,8.859,8.477H4.5v5.143H5.784v9H21.213v-9H22.5V8.476ZM16.76,4.624a2.787,2.787,0,0,1,1.859-.889A1.026,1.026,0,0,1,19.351,4c.523.523.229,1.734-.628,2.591a9.057,9.057,0,0,1-3.1,1.89H14.6A9.853,9.853,0,0,1,16.76,4.624ZM7.913,5.28a.986.986,0,0,1,.245-.773.934.934,0,0,1,.67-.249,1.775,1.775,0,0,1,1.224.552,7.146,7.146,0,0,1,1.621,3.131l.03.11-.11-.03A7.146,7.146,0,0,1,8.461,6.4,1.83,1.83,0,0,1,7.913,5.28Zm4.3,16.054H7.07V12.976h5.143Zm0-9H5.784V9.762h6.429v2.571Zm7.714,9H14.784V12.976h5.143Zm1.286-9H14.784V9.762h6.429v2.571Z" transform="translate(-4.499 -2.048)" fill="#fff"/>
      </g>
    </g>
    <g id="Group_1968-4" data-name="Group 1968" transform="translate(198.5 246.5)">
      <path id="Subtraction_2" data-name="Subtraction 2" d="M-1165-1253.5h-.033l10.519-9.942A10.493,10.493,0,0,1-1165-1253.5Zm-5.51,0h-22.715a32.971,32.971,0,0,1,9.736-5.325,38.533,38.533,0,0,1,12.388-1.986.692.692,0,0,1,.59.675v6.635Zm-29.685,0H-1307a10.431,10.431,0,0,1-7.425-3.075A10.431,10.431,0,0,1-1317.5-1264v-61a10.431,10.431,0,0,1,3.075-7.425A10.431,10.431,0,0,1-1307-1335.5h142a10.431,10.431,0,0,1,7.425,3.075A10.431,10.431,0,0,1-1154.5-1325v47.744l-13.816-12.925a1.021,1.021,0,0,0-.741-.339h-.046c-.575.027-1.407.443-1.407,1.125v9.308a.6.6,0,0,1-.506.576,37.861,37.861,0,0,0-11.015,3.375,32.167,32.167,0,0,0-8.308,5.88,40.227,40.227,0,0,0-9.856,16.755Z" transform="translate(1317.5 1335.5)" fill="#0d2944" stroke="#fff" stroke-width="3"/>
      <g id="Group_1972-4" data-name="Group 1972" transform="translate(13.5 16.857)">
        <path id="Icon_ionic-ios-share-alt" data-name="Icon ionic-ios-share-alt" d="M24.325,13.748,16.977,6.875a.376.376,0,0,0-.292-.125c-.229.01-.521.172-.521.417v3.447a.223.223,0,0,1-.187.214C8.672,11.947,5.594,17.414,4.506,23.09c-.042.224.26.432.4.255,2.666-3.359,5.91-5.551,11.04-5.593a.258.258,0,0,1,.219.25v3.385a.447.447,0,0,0,.755.276l7.4-6.993a.575.575,0,0,0,.182-.437A.7.7,0,0,0,24.325,13.748Z" transform="translate(-4.178 -5.105)" fill="#fff"/>
        <text id="Invite_a_friend" data-name="Invite a friend" transform="translate(0 45.286)" fill="#fff" font-size="14" font-family="Lato-BoldItalic, Lato" font-weight="700" font-style="italic"><tspan x="0" y="0">Invite a friend</tspan></text>
      </g>
    </g>
  </g>
</svg>
